<?xml version="1.0" encoding="UTF-8"?>
<!-- THE UKULELE, on a classroom table, seen from above. The one drawing in the set with the
     camera overhead: the table fills the frame and there is no room behind it, which is what
     stops six pictures of an instrument in a room reading as one picture six times. -->
<svg xmlns="http://www.w3.org/2000/svg" viewBox="0 0 1200 800" role="img" aria-label="A drawing of a ukulele lying on a classroom table beside a worksheet">
  <defs>
    <filter id="far" x="-16%" y="-16%" width="132%" height="132%" color-interpolation-filters="sRGB"><feGaussianBlur stdDeviation="13"/></filter>
    <filter id="near" x="-16%" y="-16%" width="132%" height="132%" color-interpolation-filters="sRGB"><feGaussianBlur stdDeviation="3.4"/></filter>
    <filter id="soft" x="-20%" y="-20%" width="140%" height="140%" color-interpolation-filters="sRGB"><feGaussianBlur stdDeviation="9"/></filter>
    <linearGradient id="wall" x1="0" y1="0" x2="0.3" y2="1">
      <stop offset="0" stop-color="#5c4069"/><stop offset="0.6" stop-color="#4a3356"/><stop offset="1" stop-color="#2b1933"/>
    </linearGradient>
    <linearGradient id="ground" x1="0" y1="0" x2="0" y2="1">
      <stop offset="0" stop-color="#5c4069"/><stop offset="1" stop-color="#2b1933"/>
    </linearGradient>
    <linearGradient id="glass" x1="0" y1="0" x2="0.25" y2="1">
      <stop offset="0" stop-color="#d5fbff" stop-opacity="0.5"/><stop offset="1" stop-color="#ff98ae" stop-opacity="0.16"/>
    </linearGradient>
    <linearGradient id="shaft" x1="0.8" y1="0" x2="0.3" y2="1">
      <stop offset="0" stop-color="#ffe9cf" stop-opacity="0.2"/><stop offset="0.55" stop-color="#ffdcc0" stop-opacity="0.05"/>
      <stop offset="1" stop-color="#ffdcc0" stop-opacity="0"/>
    </linearGradient>
    <radialGradient id="bloom" cx="0.5" cy="0.5" r="0.5">
      <stop offset="0" stop-color="#fff0dc" stop-opacity="0.26"/><stop offset="0.55" stop-color="#ffd6bf" stop-opacity="0.09"/>
      <stop offset="1" stop-color="#ffd6bf" stop-opacity="0"/>
    </radialGradient>
    <radialGradient id="warm" cx="0.8" cy="0.16" r="0.74">
      <stop offset="0" stop-color="#ffdcb8" stop-opacity="0.3"/><stop offset="0.55" stop-color="#ffc8d4" stop-opacity="0.1"/>
      <stop offset="1" stop-color="#ffc8d4" stop-opacity="0"/>
    </radialGradient>
    <radialGradient id="focusglow" cx="0.5" cy="0.5" r="0.5">
      <stop offset="0" stop-color="#ffd9c4" stop-opacity="0.5"/><stop offset="1" stop-color="#ffd9c4" stop-opacity="0"/>
    </radialGradient>
    <linearGradient id="settletop" x1="0" y1="0" x2="0" y2="1">
      <stop offset="0" stop-color="#2b1933" stop-opacity="0.3"/><stop offset="1" stop-color="#2b1933" stop-opacity="0"/>
    </linearGradient>
    <linearGradient id="settlebottom" x1="0" y1="0" x2="0" y2="1">
      <stop offset="0" stop-color="#2b1933" stop-opacity="0"/><stop offset="1" stop-color="#2b1933" stop-opacity="0.34"/>
    </linearGradient>
  </defs>

  <style>
    /* The same clock the three big rooms run, so a slice and a band read as
       one building. */
    .night { animation: night 9s ease-in-out infinite alternate; }
    .warm { animation: warm 9s ease-in-out infinite alternate; }
    .sun { animation: sun 9s ease-in-out infinite alternate; }
    .beam { filter: blur(15px); animation: sun 9s ease-in-out infinite alternate, drift 31s ease-in-out infinite alternate; }
    .bloom { filter: blur(11px); }
    /* One object comes into focus, on the 6s beat the front desk bell set. */
    .subject { filter: blur(3.4px); animation: subjectfocus 6s ease-in-out infinite; }
    .subject-body { transform-box: fill-box; transform-origin: 50% 50%; animation: sway 6s ease-in-out infinite; }
    .subject-glow { transform-box: fill-box; transform-origin: center; opacity: 0; animation: subjectglow 6s ease-in-out infinite; }
    @keyframes night { from { opacity: 0.5; } to { opacity: 0.04; } }
    @keyframes warm { from { opacity: 0; } to { opacity: 0.7; } }
    @keyframes sun { from { opacity: 0.14; } to { opacity: 0.74; } }
    @keyframes drift { from { transform: translateX(-16px); } to { transform: translateX(20px); } }
    @keyframes subjectfocus {
      0%, 44% { filter: blur(3.4px); } 56%, 76% { filter: blur(0px); } 92%, 100% { filter: blur(3.4px); }
    }
    @keyframes subjectglow {
      0%, 46% { opacity: 0; transform: scale(0.76); } 58% { opacity: 1; transform: scale(1.1); }
      84%, 100% { opacity: 0; transform: scale(0.76); }
    }
    @keyframes lift {
      0%, 48% { transform: translateY(0) scale(1); } 60% { transform: translateY(-10px) scale(1.02); }
      76% { transform: translateY(-4px) scale(1.008); } 90%, 100% { transform: translateY(0) scale(1); }
    }
    @keyframes sway {
      0%, 48% { transform: rotate(0deg); } 60% { transform: rotate(-2.2deg); }
      74% { transform: rotate(1.4deg); } 88%, 100% { transform: rotate(0deg); }
    }
    @keyframes crash {
      0%, 46% { transform: translateY(0); } 56% { transform: translateY(16px); }
      64% { transform: translateY(9px); } 72% { transform: translateY(14px); }
      86%, 100% { transform: translateY(0); }
    }
    @keyframes breathe {
      0%, 48% { transform: scale(1); } 60% { transform: scale(1.035); }
      78% { transform: scale(1.012); } 92%, 100% { transform: scale(1); }
    }
    /* An image cannot be told by the page that embeds it, so the guard lives
       in here, and every scene settles lit rather than dark. */
    @media (prefers-reduced-motion: reduce) {
      .night, .warm, .sun, .beam, .subject, .subject-body, .subject-glow { animation: none; }
      .night { opacity: 0.08; } .warm { opacity: 0.6; } .sun { opacity: 0.66; }
      .subject-glow { opacity: 0; }
    }
  </style>

  <rect width="1200" height="800" fill="url(#wall)"/>
  <rect y="0" width="1200" height="800" fill="url(#ground)"/>

  <g filter="url(#far)">
    <rect width="1200" height="800" fill="url(#wall)"/>
    <rect y="0" width="1200" height="800" fill="url(#ground)"/>
    <!-- the table fills everything: this is a tabletop, not a room. No fill
         here - the unblurred ground above already paints it, and a flat rect
         inside a filtered group shows its own blur edge. -->
    <g stroke="#2b1933" stroke-opacity="0.16" stroke-width="5">
      <path d="M0 330H1200M0 560H1200"/>
    </g>
    <!-- a worksheet, askew -->
    <g transform="rotate(-7 880 470)">
      <rect x="742" y="316" width="276" height="330" rx="6" fill="#f4eaf6" fill-opacity="0.15"/>
      <g stroke="#f4eaf6" stroke-opacity="0.22" stroke-width="5">
        <path d="M774 372H986M774 404H986M774 436H986M774 468H900"/>
      </g>
    </g>
    <!-- a pencil -->
    <path d="M636 690 L700 604" stroke="#ffe0a3" stroke-opacity="0.5" stroke-width="12" stroke-linecap="round"/>
  </g>

  <path class="beam" d="M1200 0 L1200 220 L560 800 L300 800 Z" fill="url(#shaft)"/>
  <ellipse class="sun bloom" cx="980" cy="210" rx="360" ry="300" fill="url(#bloom)"/>

  <g filter="url(#near)">
    <ellipse filter="url(#soft)" cx="430" cy="540" rx="300" ry="104" fill="#160c1b" fill-opacity="0.3"/>
  </g>

  <g class="subject">
    <ellipse class="subject-glow" cx="400" cy="470" rx="330" ry="250" fill="url(#focusglow)"/>
    <g class="subject-body">
      <!-- laid on its back, neck up-left, the way one is actually put down -->
      <g transform="rotate(-24 420 470)">
        <path d="M300 470a134 120 0 0 1 134-120 134 120 0 0 1 134 120 134 120 0 0 1-134 120 134 120 0 0 1-134-120z" fill="#c8964f"/>
        <path d="M244 470a92 84 0 0 1 92-84 92 84 0 0 1 92 84 92 84 0 0 1-92 84 92 84 0 0 1-92-84z" fill="#d6a862"/>
        <circle cx="404" cy="470" r="46" fill="#2b1933" fill-opacity="0.82"/>
        <rect x="80" y="450" width="200" height="40" rx="9" fill="#5d3f2c"/>
        <rect x="24" y="436" width="64" height="68" rx="10" fill="#4a3123"/>
        <g stroke="#f4eaf6" stroke-opacity="0.72" stroke-width="3.4">
          <path d="M60 456 L540 462M60 466 L540 468M60 476 L540 474M60 486 L540 480"/>
        </g>
        <rect x="506" y="450" width="46" height="40" rx="7" fill="#3a2418"/>
        <g fill="#d8c1dd" fill-opacity="0.66">
          <circle cx="38" cy="450" r="9"/><circle cx="38" cy="490" r="9"/>
          <circle cx="74" cy="450" r="9"/><circle cx="74" cy="490" r="9"/>
        </g>
      </g>
    </g>
  </g>

  <rect class="night" width="1200" height="800" fill="#170c1c"/>
  <rect class="warm" width="1200" height="800" fill="url(#warm)"/>
  <rect width="1200" height="180" fill="url(#settletop)"/>
  <rect y="620" width="1200" height="180" fill="url(#settlebottom)"/>
</svg>
